<?xml version="1.0" standalone="no"?><!DOCTYPE svg PUBLIC "-//W3C//DTD SVG 1.1//EN" "http://www.w3.org/Graphics/SVG/1.1/DTD/svg11.dtd"><svg t="1574769587094" class="icon" viewBox="0 0 1024 1024" version="1.1" xmlns="http://www.w3.org/2000/svg" p-id="1113" xmlns:xlink="http://www.w3.org/1999/xlink" width="200" height="200"><defs><style type="text/css"></style></defs><path d="M911.2 668 400.8 668c-24.8 0-44.8-21.6-44.8-48s20-48 44.8-48l510.4 0c24.8 0 44.8 21.6 44.8 48S936 668 911.2 668zM911.2 444 400.8 444c-24.8 0-44.8-21.6-44.8-48s20-48 44.8-48l510.4 0c24.8 0 44.8 21.6 44.8 48S936 444 911.2 444zM908 228l-781.6 0c-26.4 0-49.6-20-50.4-46.4-0.8-27.2 20.8-49.6 48-49.6l781.6 0c26.4 0 49.6 20 50.4 46.4C956.8 205.6 935.2 228 908 228zM76 667.2 76 348.8c0 0 0 0 0 0l223.2 159.2c0 0 0 0 0 0L76 667.2C76 668 76 668 76 667.2zM124 788l781.6 0c26.4 0 49.6 20 50.4 46.4 0.8 27.2-20.8 49.6-48 49.6l-781.6 0c-26.4 0-49.6-20-50.4-46.4C75.2 810.4 96.8 788 124 788z" p-id="1114"></path></svg>